<svg xmlns="http://www.w3.org/2000/svg" viewBox="0 0 200 200">
  <defs>
    <linearGradient id="femaleGrad" x1="0%" y1="0%" x2="100%" y2="100%">
      <stop offset="0%" style="stop-color:#ec4899;stop-opacity:1" />
      <stop offset="100%" style="stop-color:#a855f7;stop-opacity:1" />
    </linearGradient>
  </defs>
  <circle cx="100" cy="100" r="100" fill="url(#femaleGrad)"/>
  <path d="M100 45 C70 45 50 65 50 90 C50 100 55 110 65 115 C60 125 60 135 65 145 L75 160 L125 160 L135 145 C140 135 140 125 135 115 C145 110 150 100 150 90 C150 65 130 45 100 45 Z" fill="white" opacity="0.9"/>
  <circle cx="85" cy="85" r="5" fill="#a855f7"/>
  <circle cx="115" cy="85" r="5" fill="#a855f7"/>
  <path d="M85 105 Q100 115 115 105" stroke="#a855f7" stroke-width="3" fill="none" stroke-linecap="round"/>
  <circle cx="70" cy="110" r="8" fill="#ec4899" opacity="0.3"/>
  <circle cx="130" cy="110" r="8" fill="#ec4899" opacity="0.3"/>
</svg>